<?xml version="1.0" standalone="no"?>
<!DOCTYPE svg PUBLIC "-//W3C//DTD SVG 20010904//EN"
 "http://www.w3.org/TR/2001/REC-SVG-20010904/DTD/svg10.dtd">
<svg version="1.0" xmlns="http://www.w3.org/2000/svg"
 width="512.000000pt" height="512.000000pt" viewBox="0 0 512.000000 512.000000"
 preserveAspectRatio="xMidYMid meet">

<g transform="translate(0.000000,512.000000) scale(0.100000,-0.100000)"
fill="#000000" stroke="none">
<path d="M2321 5110 c-497 -48 -990 -251 -1376 -565 -104 -84 -289 -269 -370
-369 -476 -586 -668 -1344 -530 -2092 84 -456 306 -901 617 -1239 425 -462
951 -737 1583 -827 119 -17 512 -16 635 1 752 104 1395 504 1812 1126 210 313
352 696 410 1100 17 118 17 512 0 630 -71 497 -262 944 -557 1300 -418 505
-975 821 -1625 920 -126 19 -468 27 -599 15z m276 -1012 c51 -48 15 -138 -54
-138 -46 0 -69 14 -82 50 -12 35 0 77 26 98 27 20 84 15 110 -10z m244 -277
l175 -101 1 -50 c1 -61 30 -109 85 -140 l38 -21 0 -210 c0 -179 -2 -209 -15
-209 -8 0 -32 -16 -54 -35 -39 -35 -61 -91 -58 -143 2 -21 -22 -38 -177 -127
l-179 -104 -29 22 c-42 31 -134 31 -177 0 l-30 -23 -158 92 c-87 50 -168 97
-180 105 -18 11 -23 23 -23 59 0 25 -7 58 -15 73 -17 34 -70 81 -91 81 -12 0
-14 36 -14 215 0 179 2 215 14 215 21 0 74 47 91 81 8 15 15 48 15 72 l0 45
174 101 c95 56 178 101 184 101 7 0 26 -9 44 -20 46 -28 116 -27 159 3 19 13
36 23 39 22 3 -1 84 -48 181 -104z m-907 -71 c31 -12 59 -63 50 -93 -20 -67
-93 -89 -139 -42 -41 40 -31 104 20 133 25 14 37 15 69 2z m1297 -19 c56 -56
23 -141 -56 -141 -88 0 -114 117 -35 157 38 19 59 16 91 -16z m-1275 -735 c21
-18 28 -32 28 -61 0 -29 -7 -43 -28 -61 -31 -28 -56 -30 -95 -9 -49 25 -57 90
-16 130 31 32 75 32 111 1z m1279 -1 c37 -36 34 -86 -6 -119 -17 -14 -42 -26
-56 -26 -33 0 -83 51 -83 85 0 16 12 38 29 56 38 37 82 39 116 4z m236 -364
c17 -18 29 -40 29 -56 0 -38 -50 -85 -90 -85 -44 0 -80 39 -80 85 0 79 84 112
141 56z m-874 -3 c25 -23 31 -74 13 -107 -16 -31 -65 -46 -101 -30 -35 14 -63
66 -52 96 22 62 95 84 140 41z m-829 -20 c50 -48 11 -138 -60 -138 -86 1 -117
106 -45 151 37 22 71 18 105 -13z m1556 -168 c54 -33 104 -35 161 -6 l50 26
177 -102 178 -102 0 -44 c0 -62 26 -111 77 -141 l42 -26 1 -207 0 -207 -35
-17 c-48 -22 -85 -87 -85 -145 l0 -45 -177 -103 -178 -102 -40 22 c-53 30
-119 30 -168 0 l-36 -22 -180 103 c-180 103 -180 103 -175 134 10 58 -38 140
-97 164 l-29 12 0 208 0 208 30 12 c57 24 105 104 98 166 -3 26 7 34 172 130
96 57 177 103 179 104 2 0 18 -9 35 -20z m-1603 -48 c28 3 62 14 78 26 l28 20
178 -103 178 -103 2 -50 c2 -62 31 -110 85 -141 l40 -22 0 -204 0 -205 -39
-19 c-52 -27 -86 -83 -87 -144 l0 -48 -179 -103 -179 -103 -28 20 c-42 31
-123 34 -173 5 l-40 -24 -175 102 -175 102 -5 54 c-3 29 -11 63 -18 74 -15 29
-70 74 -88 74 -12 0 -14 36 -14 215 0 156 3 215 12 215 17 0 76 48 89 73 7 12
15 46 18 76 l6 55 175 101 175 102 43 -25 c35 -20 52 -24 93 -20z m1114 -127
c32 -31 32 -75 1 -111 -53 -63 -155 -16 -142 65 11 70 92 96 141 46z m1272 3
c30 -34 34 -55 19 -92 -18 -44 -64 -63 -106 -46 -37 15 -50 37 -50 84 0 67 92
103 137 54z m-2998 -13 c33 -16 41 -33 41 -80 0 -24 -7 -39 -26 -54 -55 -43
-134 -11 -134 55 0 77 54 113 119 79z m1292 -14 c31 -31 36 -59 17 -94 -17
-32 -39 -46 -73 -46 -47 0 -85 40 -85 89 0 30 53 80 85 80 16 0 38 -12 56 -29z
m437 -717 c48 -54 10 -134 -63 -134 -69 0 -108 73 -69 128 33 48 92 50 132 6z
m1243 26 c22 0 49 -42 49 -77 0 -49 -32 -83 -79 -83 -63 0 -99 61 -75 125 8
20 63 46 82 40 8 -3 18 -5 23 -5z m-2957 -41 c28 -22 36 -72 16 -108 -16 -31
-65 -46 -100 -31 -37 15 -50 37 -50 84 0 41 37 76 80 76 15 0 39 -9 54 -21z
m1281 -4 c52 -51 14 -139 -60 -139 -29 0 -43 7 -61 28 -49 56 -13 136 61 136
25 0 44 -8 60 -25z m1059 -337 c15 -13 29 -37 32 -55 5 -27 1 -37 -24 -63 -39
-38 -83 -40 -117 -5 -75 74 30 192 109 123z m-1695 -34 c26 -34 27 -74 1 -106
-57 -73 -175 -4 -140 82 16 38 35 49 82 50 28 0 41 -6 57 -26z"/>
</g>
</svg>
