<?xml version="1.0" standalone="no"?>
<!DOCTYPE svg PUBLIC "-//W3C//DTD SVG 20010904//EN"
 "http://www.w3.org/TR/2001/REC-SVG-20010904/DTD/svg10.dtd">
<svg version="1.0" xmlns="http://www.w3.org/2000/svg"
 width="512.000000pt" height="512.000000pt" viewBox="0 0 512.000000 512.000000"
 preserveAspectRatio="xMidYMid meet">

<g transform="translate(0.000000,512.000000) scale(0.100000,-0.100000)"
fill="#000000" stroke="none">
<path d="M4705 4731 c-28 -10 -71 -30 -95 -46 -25 -15 -454 -436 -955 -935
-596 -595 -937 -928 -989 -965 -190 -139 -589 -349 -934 -491 -15 -6 18 -9
110 -9 159 -1 232 -17 368 -82 83 -40 107 -57 190 -142 109 -110 161 -197 206
-346 23 -77 27 -110 28 -225 l1 -135 137 275 c137 276 250 474 355 624 42 59
310 335 983 1011 871 875 929 934 965 1005 34 66 39 85 43 161 4 71 1 94 -16
132 -28 62 -93 131 -155 162 -63 31 -165 34 -242 6z"/>
<path d="M1560 2064 c-58 -11 -159 -48 -210 -76 -165 -92 -277 -227 -335 -403
-48 -145 -221 -420 -340 -541 -162 -164 -365 -185 -607 -63 -59 30 -60 30 -53
7 4 -13 21 -49 37 -80 209 -396 942 -642 1467 -492 371 106 762 463 847 774
27 100 25 274 -5 370 -70 226 -238 402 -452 475 -71 24 -103 29 -204 31 -66 1
-131 0 -145 -2z"/>
</g>
</svg>
