<?xml version="1.0" standalone="no"?>
<!DOCTYPE svg PUBLIC "-//W3C//DTD SVG 20010904//EN"
 "http://www.w3.org/TR/2001/REC-SVG-20010904/DTD/svg10.dtd">
<svg version="1.0" xmlns="http://www.w3.org/2000/svg"
 width="512.000000pt" height="512.000000pt" viewBox="0 0 512.000000 512.000000"
 preserveAspectRatio="xMidYMid meet">

<g transform="translate(0.000000,512.000000) scale(0.100000,-0.100000)"
fill="#000000" stroke="none">
<path d="M2335 4391 c-1117 -224 -2042 -410 -2057 -414 -44 -11 -96 -64 -108
-108 -10 -35 -1 -87 67 -422 l78 -382 5 -1322 c5 -1315 5 -1322 26 -1349 11
-15 33 -37 48 -48 l27 -21 2139 0 2139 0 27 21 c15 11 37 33 48 48 21 27 21
32 24 1312 l2 1285 -24 24 -25 25 -1718 1 -1718 1 1689 338 c1517 303 1692
340 1708 360 10 12 18 34 18 49 0 15 -40 226 -89 470 -64 319 -94 450 -108
469 -33 44 -69 65 -120 68 -33 2 -662 -120 -2078 -405z m1988 -173 c26 -127
45 -233 43 -235 -2 -3 -131 80 -286 184 l-282 188 228 46 c126 26 234 47 240
48 7 1 30 -93 57 -231z m-903 -188 l275 -184 -280 -56 -280 -56 -278 185
c-152 101 -275 187 -272 190 9 8 518 110 540 107 11 -1 144 -85 295 -186z
m-1239 -237 c219 -147 277 -189 262 -195 -10 -4 -133 -30 -273 -58 l-255 -50
-280 187 c-157 104 -274 188 -266 191 8 3 129 28 270 57 141 29 257 54 259 54
1 1 128 -83 283 -186z m-1216 -245 c151 -101 275 -185 275 -188 0 -6 -631
-133 -634 -128 -5 5 -94 463 -92 465 5 5 131 31 154 32 13 1 130 -71 297 -181z
m60 -1068 l-240 -240 -72 0 -73 0 0 240 0 240 312 0 313 0 -240 -240z m1280 0
l-240 -240 -300 0 -300 0 240 240 240 240 300 0 300 0 -240 -240z m1280 0
l-240 -240 -305 0 -305 0 240 240 240 240 305 0 305 0 -240 -240z m895 -15 l0
-225 -227 0 -228 0 225 225 c124 124 226 225 227 225 2 0 3 -101 3 -225z"/>
</g>
</svg>
